# TerrainToMesh OBJ File
# File Created: 26.01.2023 23:14:30


g Terrain (ID_-241434)


v 0 0 0
v -1.428571 0 0
v -2.857143 0.002092768 0
v -4.285714 0.1992483 0
v -5.714286 0.02637746 0
v -7.142858 0.1319093 0
v -8.571428 0 0
v -10 0 0
v 0 0 1.428571
v -1.428571 0 1.428571
v -2.857143 0.7699402 1.428571
v -4.285714 0.4816405 1.428571
v -5.714286 0.5629094 1.428571
v -7.142858 0.9101987 1.428571
v -8.571428 0.4601024 1.428571
v -10 0.02328197 1.428571
v 0 0 2.857143
v -1.428571 0 2.857143
v -2.857143 0.1713232 2.857143
v -4.285714 0.7565333 2.857143
v -5.714286 1.989497 2.857143
v -7.142858 0.6169721 2.857143
v -8.571428 0.7588444 2.857143
v -10 0.1085839 2.857143
v 0 0 4.285714
v -1.428571 0 4.285714
v -2.857143 0.3363674 4.285714
v -4.285714 1.010891 4.285714
v -5.714286 1.386476 4.285714
v -7.142858 0.6747846 4.285714
v -8.571428 0.462958 4.285714
v -10 0.08310021 4.285714
v 0 0 5.714286
v -1.428571 0.001155381 5.714286
v -2.857143 0.3538293 5.714286
v -4.285714 0.6757216 5.714286
v -5.714286 0.8365597 5.714286
v -7.142858 0.9622343 5.714286
v -8.571428 0.7318999 5.714286
v -10 0.06077728 5.714286
v 0 0 7.142858
v -1.428571 0 7.142858
v -2.857143 0.3737107 7.142858
v -4.285714 0.3112983 7.142858
v -5.714286 1.081173 7.142858
v -7.142858 0.6393822 7.142858
v -8.571428 0.581831 7.142858
v -10 0.05266785 7.142858
v 0 0 8.571428
v -1.428571 0 8.571428
v -2.857143 0.1868882 8.571428
v -4.285714 0.2431966 8.571428
v -5.714286 0.7353665 8.571428
v -7.142858 0.4570287 8.571428
v -8.571428 0.3473333 8.571428
v -10 0.02147257 8.571428
v 0 0 10
v -1.428571 0 10
v -2.857143 0 10
v -4.285714 0 10
v -5.714286 0.01907468 10
v -7.142858 0.06958435 10
v -8.571428 0.02794712 10
v -10 0 10
vt 0 0
vt 0.1428571 0
vt 0.2857143 0
vt 0.4285714 0
vt 0.5714286 0
vt 0.7142857 0
vt 0.8571428 0
vt 1 0
vt 0 0.1428571
vt 0.1428571 0.1428571
vt 0.2857143 0.1428571
vt 0.4285714 0.1428571
vt 0.5714286 0.1428571
vt 0.7142857 0.1428571
vt 0.8571428 0.1428571
vt 1 0.1428571
vt 0 0.2857143
vt 0.1428571 0.2857143
vt 0.2857143 0.2857143
vt 0.4285714 0.2857143
vt 0.5714286 0.2857143
vt 0.7142857 0.2857143
vt 0.8571428 0.2857143
vt 1 0.2857143
vt 0 0.4285714
vt 0.1428571 0.4285714
vt 0.2857143 0.4285714
vt 0.4285714 0.4285714
vt 0.5714286 0.4285714
vt 0.7142857 0.4285714
vt 0.8571428 0.4285714
vt 1 0.4285714
vt 0 0.5714286
vt 0.1428571 0.5714286
vt 0.2857143 0.5714286
vt 0.4285714 0.5714286
vt 0.5714286 0.5714286
vt 0.7142857 0.5714286
vt 0.8571428 0.5714286
vt 1 0.5714286
vt 0 0.7142857
vt 0.1428571 0.7142857
vt 0.2857143 0.7142857
vt 0.4285714 0.7142857
vt 0.5714286 0.7142857
vt 0.7142857 0.7142857
vt 0.8571428 0.7142857
vt 1 0.7142857
vt 0 0.8571428
vt 0.1428571 0.8571428
vt 0.2857143 0.8571428
vt 0.4285714 0.8571428
vt 0.5714286 0.8571428
vt 0.7142857 0.8571428
vt 0.8571428 0.8571428
vt 1 0.8571428
vt 0 1
vt 0.1428571 1
vt 0.2857143 1
vt 0.4285714 1
vt 0.5714286 1
vt 0.7142857 1
vt 0.8571428 1
vt 1 1
vn 0 1 0
vn 0.1585763 0.9203715 -0.1578127
vn -0.01318684 0.9067352 -0.377246
vn 0.02577439 0.9606145 -0.2450494
vn 0.05802578 0.9064367 -0.3898644
vn -0.09649125 0.8902766 -0.4146276
vn -0.1223361 0.9539964 -0.205344
vn 0 0.9998672 -0.01629522
vn 0 1 0
vn 0.1731055 0.9498444 0.05767924
vn 0.1508124 0.8800445 -0.06955289
vn 0.08454174 0.8730462 -0.3145781
vn -0.0208786 0.8446066 -0.3301027
vn 0.008961792 0.9164515 -0.1802009
vn -0.2712125 0.9154425 -0.2500681
vn -0.1904632 0.9561774 -0.1225513
vn 0 1 0
vn 0.07776 0.9921141 -0.01899362
vn 0.3057683 0.9134 0.05452808
vn 0.3420958 0.8604044 0.0006910016
vn -0.06045496 0.7200914 -0.1343161
vn -0.1626709 0.8661496 -0.009324916
vn -0.1957107 0.9394497 0.03865279
vn -0.3710468 0.9196212 -0.07591609
vn 0.0002695888 0.9999998 -0.0002695887
vn 0.1163399 0.9862578 -0.00224852
vn 0.2731302 0.9487562 -0.005691546
vn 0.3023638 0.9207072 0.05788564
vn 0.05618047 0.8714835 0.1696356
vn -0.332565 0.8947003 -0.04514972
vn -0.1870066 0.9569414 0.003698042
vn -0.3077146 0.9413196 0.07586838
vn 0.0005391774 0.9999997 0.0002695886
vn 0.1223382 0.9848433 -0.002252136
vn 0.1829945 0.9726703 0.03157889
vn 0.2554844 0.9355074 0.1192543
vn 0.05554809 0.9497568 0.1374064
vn -0.1042092 0.9513015 0.08816656
vn -0.2747813 0.9422203 -0.05659394
vn -0.3670999 0.9212113 -0.04924492
vn 0 1 0
vn 0.105781 0.9864648 0.02118483
vn 0.115938 0.9809451 0.04600541
vn 0.2297228 0.9346549 0.1246174
vn 0.04437593 0.9242751 0.07509147
vn -0.1090483 0.9687901 0.1146029
vn -0.1916445 0.9626853 0.126968
vn -0.3727172 0.9252813 0.0412145
vn 0 1 0
vn 0.04305919 0.9958107 0.02143978
vn 0.09788593 0.9836805 0.1135237
vn 0.111196 0.9597254 0.1643397
vn 0.1240744 0.9094588 0.2697003
vn -0.1404892 0.9631367 0.20249
vn -0.1085748 0.9769284 0.1494175
vn -0.26308 0.9583663 0.06438415
vn 0 1 0
vn 0 1 0
vn 0.04287956 0.9916213 0.08611836
vn 0.01732977 0.9874522 0.1550739
vn 0.113028 0.9111789 0.3480552
vn -0.06044421 0.9355804 0.3222972
vn -0.04064476 0.9712206 0.2324565
vn -0.1207273 0.9752914 0.1163985
f 10/10/10 9/9/9 1/1/1
f 10/10/10 1/1/1 2/2/2
f 11/11/11 10/10/10 2/2/2
f 11/11/11 2/2/2 3/3/3
f 12/12/12 11/11/11 3/3/3
f 12/12/12 3/3/3 4/4/4
f 13/13/13 12/12/12 4/4/4
f 13/13/13 4/4/4 5/5/5
f 14/14/14 13/13/13 5/5/5
f 14/14/14 5/5/5 6/6/6
f 15/15/15 14/14/14 6/6/6
f 15/15/15 6/6/6 7/7/7
f 16/16/16 15/15/15 7/7/7
f 16/16/16 7/7/7 8/8/8
f 18/18/18 17/17/17 9/9/9
f 18/18/18 9/9/9 10/10/10
f 19/19/19 18/18/18 10/10/10
f 19/19/19 10/10/10 11/11/11
f 20/20/20 19/19/19 11/11/11
f 20/20/20 11/11/11 12/12/12
f 21/21/21 20/20/20 12/12/12
f 21/21/21 12/12/12 13/13/13
f 22/22/22 21/21/21 13/13/13
f 22/22/22 13/13/13 14/14/14
f 23/23/23 22/22/22 14/14/14
f 23/23/23 14/14/14 15/15/15
f 24/24/24 23/23/23 15/15/15
f 24/24/24 15/15/15 16/16/16
f 26/26/26 25/25/25 17/17/17
f 26/26/26 17/17/17 18/18/18
f 27/27/27 26/26/26 18/18/18
f 27/27/27 18/18/18 19/19/19
f 28/28/28 27/27/27 19/19/19
f 28/28/28 19/19/19 20/20/20
f 29/29/29 28/28/28 20/20/20
f 29/29/29 20/20/20 21/21/21
f 30/30/30 29/29/29 21/21/21
f 30/30/30 21/21/21 22/22/22
f 31/31/31 30/30/30 22/22/22
f 31/31/31 22/22/22 23/23/23
f 32/32/32 31/31/31 23/23/23
f 32/32/32 23/23/23 24/24/24
f 34/34/34 33/33/33 25/25/25
f 34/34/34 25/25/25 26/26/26
f 35/35/35 34/34/34 26/26/26
f 35/35/35 26/26/26 27/27/27
f 36/36/36 35/35/35 27/27/27
f 36/36/36 27/27/27 28/28/28
f 37/37/37 36/36/36 28/28/28
f 37/37/37 28/28/28 29/29/29
f 38/38/38 37/37/37 29/29/29
f 38/38/38 29/29/29 30/30/30
f 39/39/39 38/38/38 30/30/30
f 39/39/39 30/30/30 31/31/31
f 40/40/40 39/39/39 31/31/31
f 40/40/40 31/31/31 32/32/32
f 42/42/42 41/41/41 33/33/33
f 42/42/42 33/33/33 34/34/34
f 43/43/43 42/42/42 34/34/34
f 43/43/43 34/34/34 35/35/35
f 44/44/44 43/43/43 35/35/35
f 44/44/44 35/35/35 36/36/36
f 45/45/45 44/44/44 36/36/36
f 45/45/45 36/36/36 37/37/37
f 46/46/46 45/45/45 37/37/37
f 46/46/46 37/37/37 38/38/38
f 47/47/47 46/46/46 38/38/38
f 47/47/47 38/38/38 39/39/39
f 48/48/48 47/47/47 39/39/39
f 48/48/48 39/39/39 40/40/40
f 50/50/50 49/49/49 41/41/41
f 50/50/50 41/41/41 42/42/42
f 51/51/51 50/50/50 42/42/42
f 51/51/51 42/42/42 43/43/43
f 52/52/52 51/51/51 43/43/43
f 52/52/52 43/43/43 44/44/44
f 53/53/53 52/52/52 44/44/44
f 53/53/53 44/44/44 45/45/45
f 54/54/54 53/53/53 45/45/45
f 54/54/54 45/45/45 46/46/46
f 55/55/55 54/54/54 46/46/46
f 55/55/55 46/46/46 47/47/47
f 56/56/56 55/55/55 47/47/47
f 56/56/56 47/47/47 48/48/48
f 58/58/58 57/57/57 49/49/49
f 58/58/58 49/49/49 50/50/50
f 59/59/59 58/58/58 50/50/50
f 59/59/59 50/50/50 51/51/51
f 60/60/60 59/59/59 51/51/51
f 60/60/60 51/51/51 52/52/52
f 61/61/61 60/60/60 52/52/52
f 61/61/61 52/52/52 53/53/53
f 62/62/62 61/61/61 53/53/53
f 62/62/62 53/53/53 54/54/54
f 63/63/63 62/62/62 54/54/54
f 63/63/63 54/54/54 55/55/55
f 64/64/64 63/63/63 55/55/55
f 64/64/64 55/55/55 56/56/56
